{
  "accessors": [
    {
      "bufferView": 2,
      "componentType": 5126,
      "count": 114,
      "max": [
        0.31328898668289185,
        0.28921899199485779,
        0.61046099662780762
      ],
      "min": [
        -0.31205898523330688,
        0.18562400341033936,
        0.52816301584243774
      ],
      "type": "VEC3"
    },
    {
      "bufferView": 2,
      "byteOffset": 1368,
      "componentType": 5126,
      "count": 114,
      "max": [
        0.63471615314483643,
        0.96246063709259033,
        0.65899044275283813
      ],
      "min": [
        -0.63471603393554688,
        -0.93694651126861572,
        0.019267203286290169
      ],
      "type": "VEC3"
    },
    {
      "bufferView": 3,
      "componentType": 5126,
      "count": 114,
      "max": [
        0.99638891220092773,
        0.55486369132995605,
        0.65199720859527588,
        1
      ],
      "min": [
        -0.99638891220092773,
        -0.56944507360458374,
        -0.2567628026008606,
        -1
      ],
      "type": "VEC4"
    },
    {
      "bufferView": 1,
      "componentType": 5126,
      "count": 114,
      "max": [
        0.21788999438285828,
        0.75089597702026367
      ],
      "min": [
        0.016982000321149826,
        0.68874597549438477
      ],
      "type": "VEC2"
    },
    {
      "bufferView": 0,
      "componentType": 5125,
      "count": 408,
      "max": [
        113
      ],
      "min": [
        0
      ],
      "type": "SCALAR"
    },
    {
      "bufferView": 2,
      "byteOffset": 2736,
      "componentType": 5126,
      "count": 282,
      "max": [
        0.28294101357460022,
        0.32471799850463867,
        0.58403801918029785
      ],
      "min": [
        -0.28171101212501526,
        0.14269299805164337,
        0.52160298824310303
      ],
      "type": "VEC3"
    },
    {
      "bufferView": 2,
      "byteOffset": 6120,
      "componentType": 5126,
      "count": 282,
      "max": [
        0.88939273357391357,
        0.85264241695404053,
        0.9971889853477478
      ],
      "min": [
        -0.88939154148101807,
        -0.85264301300048828,
        0.4571438729763031
      ],
      "type": "VEC3"
    },
    {
      "bufferView": 3,
      "byteOffset": 1824,
      "componentType": 5126,
      "count": 282,
      "max": [
        0.99947679042816162,
        0.1902802437543869,
        0.88938772678375244,
        1
      ],
      "min": [
        0.45711055397987366,
        -0.18227069079875946,
        -0.88932794332504272,
        1
      ],
      "type": "VEC4"
    },
    {
      "bufferView": 1,
      "byteOffset": 912,
      "componentType": 5126,
      "count": 282,
      "max": [
        0.48708701133728027,
        0.78181099891662598
      ],
      "min": [
        0.2513979971408844,
        0.66616302728652954
      ],
      "type": "VEC2"
    },
    {
      "bufferView": 0,
      "byteOffset": 1632,
      "componentType": 5125,
      "count": 1560,
      "max": [
        281
      ],
      "min": [
        0
      ],
      "type": "SCALAR"
    },
    {
      "bufferView": 2,
      "byteOffset": 9504,
      "componentType": 5126,
      "count": 3696,
      "max": [
        0.56640797853469849,
        0.85281497240066528,
        0.78679698705673218
      ],
      "min": [
        -0.56467300653457642,
        -1,
        -0.78679698705673218
      ],
      "type": "VEC3"
    },
    {
      "bufferView": 2,
      "byteOffset": 53856,
      "componentType": 5126,
      "count": 3696,
      "max": [
        0.9995313286781311,
        0.99966311454772949,
        0.99998199939727783
      ],
      "min": [
        -0.99948751926422119,
        -0.99934190511703491,
        -0.99988746643066406
      ],
      "type": "VEC3"
    },
    {
      "bufferView": 3,
      "byteOffset": 6336,
      "componentType": 5126,
      "count": 3696,
      "max": [
        0.99999696016311646,
        0.83465749025344849,
        0.99982678890228271,
        1
      ],
      "min": [
        -0.99997371435165405,
        -0.83352500200271606,
        -0.99997913837432861,
        -1
      ],
      "type": "VEC4"
    },
    {
      "bufferView": 1,
      "byteOffset": 3168,
      "componentType": 5126,
      "count": 3696,
      "max": [
        0.89500099420547485,
        0.66578799486160278
      ],
      "min": [
        0.0046708001755177975,
        0.0025674600619822741
      ],
      "type": "VEC2"
    },
    {
      "bufferView": 0,
      "byteOffset": 7872,
      "componentType": 5125,
      "count": 21600,
      "max": [
        3695
      ],
      "min": [
        0
      ],
      "type": "SCALAR"
    },
    {
      "bufferView": 2,
      "byteOffset": 98208,
      "componentType": 5126,
      "count": 23182,
      "max": [
        0.40197798609733582,
        0.96006101369857788,
        0.78590697050094604
      ],
      "min": [
        -0.56554597616195679,
        -0.10315699875354767,
        -0.53600102663040161
      ],
      "type": "VEC3"
    },
    {
      "bufferView": 2,
      "byteOffset": 376392,
      "componentType": 5126,
      "count": 23182,
      "max": [
        0.99972200393676758,
        0.99987536668777466,
        0.99984276294708252
      ],
      "min": [
        -0.99998676776885986,
        -0.99979889392852783,
        -0.99986577033996582
      ],
      "type": "VEC3"
    },
    {
      "bufferView": 3,
      "byteOffset": 65472,
      "componentType": 5126,
      "count": 23182,
      "max": [
        0.99999803304672241,
        0.94980150461196899,
        0.99999815225601196,
        1
      ],
      "min": [
        -0.99997508525848389,
        -0.99723470211029053,
        -0.99997246265411377,
        -1
      ],
      "type": "VEC4"
    },
    {
      "bufferView": 1,
      "byteOffset": 32736,
      "componentType": 5126,
      "count": 23182,
      "max": [
        0.89740699529647827,
        0.99795001745223999
      ],
      "min": [
        0.070669502019882202,
        0.66606098413467407
      ],
      "type": "VEC2"
    },
    {
      "bufferView": 0,
      "byteOffset": 94272,
      "componentType": 5125,
      "count": 133476,
      "max": [
        23181
      ],
      "min": [
        0
      ],
      "type": "SCALAR"
    }
  ],
  "asset": {
    "extras": {
      "author": "Guillermo Torres (https://sketchfab.com/Maha55)",
      "license": "CC-BY-4.0 (http://creativecommons.org/licenses/by/4.0/)",
      "source": "https://sketchfab.com/3d-models/self-portrait-212f740dddd441b4afc876536b214438",
      "title": "Self Portrait"
    },
    "generator": "Sketchfab-6.71.0",
    "version": "2.0"
  },
  "bufferViews": [
    {
      "buffer": 0,
      "byteLength": 628176,
      "byteOffset": 0,
      "name": "floatBufferViews",
      "target": 34963
    },
    {
      "buffer": 0,
      "byteLength": 218192,
      "byteOffset": 628176,
      "byteStride": 8,
      "name": "floatBufferViews",
      "target": 34962
    },
    {
      "buffer": 0,
      "byteLength": 654576,
      "byteOffset": 846368,
      "byteStride": 12,
      "name": "floatBufferViews",
      "target": 34962
    },
    {
      "buffer": 0,
      "byteLength": 436384,
      "byteOffset": 1500944,
      "byteStride": 16,
      "name": "floatBufferViews",
      "target": 34962
    }
  ],
  "buffers": [
    {
      "byteLength": 1937328,
      "uri": "scene.bin"
    }
  ],
  "images": [
    {
      "uri": "textures/Head_baseColor.png"
    },
    {
      "uri": "textures/Head_metallicRoughness.png"
    },
    {
      "uri": "textures/Head_normal.png"
    }
  ],
  "materials": [
    {
      "alphaMode": "BLEND",
      "doubleSided": true,
      "name": "Head",
      "normalTexture": {
        "index": 2,
        "scale": 1,
        "texCoord": 0
      },
      "occlusionTexture": {
        "index": 1,
        "strength": 1,
        "texCoord": 0
      },
      "pbrMetallicRoughness": {
        "baseColorFactor": [
          1,
          1,
          1,
          1
        ],
        "baseColorTexture": {
          "index": 0,
          "texCoord": 0
        },
        "metallicFactor": 1,
        "metallicRoughnessTexture": {
          "index": 1,
          "texCoord": 0
        },
        "roughnessFactor": 1
      }
    }
  ],
  "meshes": [
    {
      "name": "defaultMaterial",
      "primitives": [
        {
          "attributes": {
            "NORMAL": 1,
            "POSITION": 0,
            "TANGENT": 2,
            "TEXCOORD_0": 3
          },
          "indices": 4,
          "material": 0,
          "mode": 4
        }
      ]
    },
    {
      "name": "defaultMaterial",
      "primitives": [
        {
          "attributes": {
            "NORMAL": 6,
            "POSITION": 5,
            "TANGENT": 7,
            "TEXCOORD_0": 8
          },
          "indices": 9,
          "material": 0,
          "mode": 4
        }
      ]
    },
    {
      "name": "defaultMaterial",
      "primitives": [
        {
          "attributes": {
            "NORMAL": 11,
            "POSITION": 10,
            "TANGENT": 12,
            "TEXCOORD_0": 13
          },
          "indices": 14,
          "material": 0,
          "mode": 4
        }
      ]
    },
    {
      "name": "defaultMaterial",
      "primitives": [
        {
          "attributes": {
            "NORMAL": 16,
            "POSITION": 15,
            "TANGENT": 17,
            "TEXCOORD_0": 18
          },
          "indices": 19,
          "material": 0,
          "mode": 4
        }
      ]
    }
  ],
  "nodes": [
    {
      "children": [
        1
      ],
      "name": "RootNode (gltf orientation matrix)",
      "rotation": [
        -0.70710678118654746,
        -0,
        -0,
        0.70710678118654757
      ]
    },
    {
      "children": [
        2
      ],
      "name": "RootNode (model correction matrix)"
    },
    {
      "children": [
        3,
        5,
        7,
        9
      ],
      "matrix": [
        1,
        0,
        0,
        0,
        0,
        -4.3711390063094768e-08,
        0.999999999999999,
        0,
        0,
        -0.999999999999999,
        -4.3711390063094768e-08,
        0,
        0,
        0,
        0,
        1
      ],
      "name": "Collada visual scene group"
    },
    {
      "children": [
        4
      ],
      "name": "Eyelashes"
    },
    {
      "mesh": 0,
      "name": "defaultMaterial"
    },
    {
      "children": [
        6
      ],
      "name": "Eyes_low"
    },
    {
      "mesh": 1,
      "name": "defaultMaterial"
    },
    {
      "children": [
        8
      ],
      "name": "Main_Head_low"
    },
    {
      "mesh": 2,
      "name": "defaultMaterial"
    },
    {
      "children": [
        10
      ],
      "name": "Main_Hair_low"
    },
    {
      "mesh": 3,
      "name": "defaultMaterial"
    }
  ],
  "samplers": [
    {
      "magFilter": 9729,
      "minFilter": 9987,
      "wrapS": 10497,
      "wrapT": 10497
    }
  ],
  "scene": 0,
  "scenes": [
    {
      "name": "OSG_Scene",
      "nodes": [
        0
      ]
    }
  ],
  "textures": [
    {
      "sampler": 0,
      "source": 0
    },
    {
      "sampler": 0,
      "source": 1
    },
    {
      "sampler": 0,
      "source": 2
    }
  ]
}

