{
  "accessors": [
    {
      "bufferView": 2,
      "componentType": 5126,
      "count": 1713,
      "max": [
        -0.070775002241134644,
        -0.45554399490356445,
        4.9285058975219727
      ],
      "min": [
        -0.65461498498916626,
        -1.0544220209121704,
        4.3446650505065918
      ],
      "type": "VEC3"
    },
    {
      "bufferView": 2,
      "byteOffset": 20556,
      "componentType": 5126,
      "count": 1713,
      "max": [
        1,
        1,
        1
      ],
      "min": [
        -1,
        -1,
        -1
      ],
      "type": "VEC3"
    },
    {
      "bufferView": 1,
      "componentType": 5126,
      "count": 1713,
      "max": [
        0.875,
        1
      ],
      "min": [
        0.125,
        0
      ],
      "type": "VEC2"
    },
    {
      "bufferView": 0,
      "componentType": 5125,
      "count": 9600,
      "max": [
        1712
      ],
      "min": [
        0
      ],
      "type": "SCALAR"
    },
    {
      "bufferView": 2,
      "byteOffset": 41112,
      "componentType": 5126,
      "count": 2855,
      "max": [
        1.0310959815979004,
        0.86230999231338501,
        5.8260588645935059
      ],
      "min": [
        -1.0310959815979004,
        -1.3924670219421387,
        3.4908668994903564
      ],
      "type": "VEC3"
    },
    {
      "bufferView": 2,
      "byteOffset": 75372,
      "componentType": 5126,
      "count": 2855,
      "max": [
        0.99999988079071045,
        1,
        0.99963313341140747
      ],
      "min": [
        -0.99999988079071045,
        -1,
        -0.99996799230575562
      ],
      "type": "VEC3"
    },
    {
      "bufferView": 3,
      "componentType": 5126,
      "count": 2855,
      "max": [
        0.99979174137115479,
        0.99961864948272705,
        0.99432945251464844,
        1
      ],
      "min": [
        -0.9999653697013855,
        -0.99930351972579956,
        -0.99999755620956421,
        -1
      ],
      "type": "VEC4"
    },
    {
      "bufferView": 1,
      "byteOffset": 13704,
      "componentType": 5126,
      "count": 2855,
      "max": [
        0.92556101083755493,
        1
      ],
      "min": [
        0,
        0
      ],
      "type": "VEC2"
    },
    {
      "bufferView": 0,
      "byteOffset": 38400,
      "componentType": 5125,
      "count": 15330,
      "max": [
        2854
      ],
      "min": [
        0
      ],
      "type": "SCALAR"
    },
    {
      "bufferView": 2,
      "byteOffset": 109632,
      "componentType": 5126,
      "count": 418,
      "max": [
        0.65139597654342651,
        -0.45946800708770752,
        4.9245820045471191
      ],
      "min": [
        0.075402997434139252,
        -1.0354609489440918,
        4.3485889434814453
      ],
      "type": "VEC3"
    },
    {
      "bufferView": 2,
      "byteOffset": 114648,
      "componentType": 5126,
      "count": 418,
      "max": [
        1,
        1,
        1
      ],
      "min": [
        -1,
        -1,
        -1
      ],
      "type": "VEC3"
    },
    {
      "bufferView": 3,
      "byteOffset": 45680,
      "componentType": 5126,
      "count": 418,
      "max": [
        0.99958705902099609,
        0.99971663951873779,
        0.69786977767944336,
        1
      ],
      "min": [
        -0.9402584433555603,
        -0.99971687793731689,
        -0.4310353696346283,
        1
      ],
      "type": "VEC4"
    },
    {
      "bufferView": 1,
      "byteOffset": 36544,
      "componentType": 5126,
      "count": 418,
      "max": [
        0.9710010290145874,
        0.99229300022125244
      ],
      "min": [
        0,
        0
      ],
      "type": "VEC2"
    },
    {
      "bufferView": 0,
      "byteOffset": 99720,
      "componentType": 5125,
      "count": 2304,
      "max": [
        417
      ],
      "min": [
        0
      ],
      "type": "SCALAR"
    },
    {
      "bufferView": 2,
      "byteOffset": 119664,
      "componentType": 5126,
      "count": 418,
      "max": [
        -0.074698001146316528,
        -0.45946800708770752,
        4.9245820045471191
      ],
      "min": [
        -0.65069198608398438,
        -1.0354609489440918,
        4.3485889434814453
      ],
      "type": "VEC3"
    },
    {
      "bufferView": 2,
      "byteOffset": 124680,
      "componentType": 5126,
      "count": 418,
      "max": [
        1,
        1,
        1
      ],
      "min": [
        -1,
        -1,
        -1
      ],
      "type": "VEC3"
    },
    {
      "bufferView": 3,
      "byteOffset": 52368,
      "componentType": 5126,
      "count": 418,
      "max": [
        0.99958705902099609,
        0.99971669912338257,
        0.69786715507507324,
        1
      ],
      "min": [
        -0.94025629758834839,
        -0.99971663951873779,
        -0.43103781342506409,
        1
      ],
      "type": "VEC4"
    },
    {
      "bufferView": 1,
      "byteOffset": 39888,
      "componentType": 5126,
      "count": 418,
      "max": [
        0.9710010290145874,
        0.99229300022125244
      ],
      "min": [
        0,
        0
      ],
      "type": "VEC2"
    },
    {
      "bufferView": 0,
      "byteOffset": 108936,
      "componentType": 5125,
      "count": 2304,
      "max": [
        417
      ],
      "min": [
        0
      ],
      "type": "SCALAR"
    },
    {
      "bufferView": 2,
      "byteOffset": 129696,
      "componentType": 5126,
      "count": 212,
      "max": [
        -0.17567400634288788,
        -0.89336597919464111,
        4.9931430816650391
      ],
      "min": [
        -0.60226702690124512,
        -1.1105220317840576,
        4.8831157684326172
      ],
      "type": "VEC3"
    },
    {
      "bufferView": 2,
      "byteOffset": 132240,
      "componentType": 5126,
      "count": 212,
      "max": [
        0.94808834791183472,
        0.94801753759384155,
        0.99979162216186523
      ],
      "min": [
        -0.95485776662826538,
        -0.99076437950134277,
        -0.9988664984703064
      ],
      "type": "VEC3"
    },
    {
      "bufferView": 1,
      "byteOffset": 43232,
      "componentType": 5126,
      "count": 212,
      "max": [
        0.97315400838851929,
        0.93424898386001587
      ],
      "min": [
        0.024206999689340591,
        0.023618999868631363
      ],
      "type": "VEC2"
    },
    {
      "bufferView": 0,
      "byteOffset": 118152,
      "componentType": 5125,
      "count": 960,
      "max": [
        211
      ],
      "min": [
        0
      ],
      "type": "SCALAR"
    },
    {
      "bufferView": 2,
      "byteOffset": 134784,
      "componentType": 5126,
      "count": 212,
      "max": [
        0.60226798057556152,
        -0.89336597919464111,
        4.9931430816650391
      ],
      "min": [
        0.17567400634288788,
        -1.1105220317840576,
        4.8831148147583008
      ],
      "type": "VEC3"
    },
    {
      "bufferView": 2,
      "byteOffset": 137328,
      "componentType": 5126,
      "count": 212,
      "max": [
        0.95485001802444458,
        0.95110833644866943,
        0.99927926063537598
      ],
      "min": [
        -0.94808822870254517,
        -0.99648934602737427,
        -0.99943298101425171
      ],
      "type": "VEC3"
    },
    {
      "bufferView": 1,
      "byteOffset": 44928,
      "componentType": 5126,
      "count": 212,
      "max": [
        0.97315400838851929,
        0.93424898386001587
      ],
      "min": [
        0.024206999689340591,
        0.023618999868631363
      ],
      "type": "VEC2"
    },
    {
      "bufferView": 0,
      "byteOffset": 121992,
      "componentType": 5125,
      "count": 960,
      "max": [
        211
      ],
      "min": [
        0
      ],
      "type": "SCALAR"
    },
    {
      "bufferView": 2,
      "byteOffset": 139872,
      "componentType": 5126,
      "count": 1146,
      "max": [
        0.95283800363540649,
        0.92455899715423584,
        5.9883022308349609
      ],
      "min": [
        -0.95283800363540649,
        -1.1427520513534546,
        4.0888662338256836
      ],
      "type": "VEC3"
    },
    {
      "bufferView": 2,
      "byteOffset": 153624,
      "componentType": 5126,
      "count": 1146,
      "max": [
        0.9995725154876709,
        0.99954324960708618,
        1
      ],
      "min": [
        -0.9995725154876709,
        -0.99858778715133667,
        -1
      ],
      "type": "VEC3"
    },
    {
      "bufferView": 3,
      "byteOffset": 59056,
      "componentType": 5126,
      "count": 1146,
      "max": [
        0.99966400861740112,
        0.99399399757385254,
        0.99507260322570801,
        1
      ],
      "min": [
        -0.99999815225601196,
        -0.99774229526519775,
        -0.99211055040359497,
        -1
      ],
      "type": "VEC4"
    },
    {
      "bufferView": 1,
      "byteOffset": 46624,
      "componentType": 5126,
      "count": 1146,
      "max": [
        0.9975469708442688,
        1
      ],
      "min": [
        0,
        0
      ],
      "type": "VEC2"
    },
    {
      "bufferView": 0,
      "byteOffset": 125832,
      "componentType": 5125,
      "count": 5808,
      "max": [
        1145
      ],
      "min": [
        0
      ],
      "type": "SCALAR"
    },
    {
      "bufferView": 2,
      "byteOffset": 167376,
      "componentType": 5126,
      "count": 1713,
      "max": [
        0.65531998872756958,
        -0.45554399490356445,
        4.9285058975219727
      ],
      "min": [
        0.071479000151157379,
        -1.0544220209121704,
        4.3446650505065918
      ],
      "type": "VEC3"
    },
    {
      "bufferView": 2,
      "byteOffset": 187932,
      "componentType": 5126,
      "count": 1713,
      "max": [
        1,
        1,
        1
      ],
      "min": [
        -1,
        -1,
        -1
      ],
      "type": "VEC3"
    },
    {
      "bufferView": 1,
      "byteOffset": 55792,
      "componentType": 5126,
      "count": 1713,
      "max": [
        0.875,
        1
      ],
      "min": [
        0.125,
        0
      ],
      "type": "VEC2"
    },
    {
      "bufferView": 0,
      "byteOffset": 149064,
      "componentType": 5125,
      "count": 9600,
      "max": [
        1712
      ],
      "min": [
        0
      ],
      "type": "SCALAR"
    }
  ],
  "asset": {
    "extras": {
      "author": "danielvicente97cesur (https://sketchfab.com/danielvicente97cesur)",
      "license": "CC-BY-4.0 (http://creativecommons.org/licenses/by/4.0/)",
      "source": "https://sketchfab.com/3d-models/elven-head-b57abbc6e0094afd9e16e445d3daf5ef",
      "title": "Elven Head"
    },
    "generator": "Sketchfab-7.92.0",
    "version": "2.0"
  },
  "bufferViews": [
    {
      "buffer": 0,
      "byteLength": 187464,
      "byteOffset": 0,
      "name": "floatBufferViews",
      "target": 34963
    },
    {
      "buffer": 0,
      "byteLength": 69496,
      "byteOffset": 187464,
      "byteStride": 8,
      "name": "floatBufferViews",
      "target": 34962
    },
    {
      "buffer": 0,
      "byteLength": 208488,
      "byteOffset": 256960,
      "byteStride": 12,
      "name": "floatBufferViews",
      "target": 34962
    },
    {
      "buffer": 0,
      "byteLength": 77392,
      "byteOffset": 465448,
      "byteStride": 16,
      "name": "floatBufferViews",
      "target": 34962
    }
  ],
  "buffers": [
    {
      "byteLength": 542840,
      "uri": "scene.bin"
    }
  ],
  "images": [
    {
      "uri": "textures/lambert11SG_baseColor.png"
    },
    {
      "uri": "textures/lambert11SG_metallicRoughness.png"
    },
    {
      "uri": "textures/lambert11SG_normal.png"
    },
    {
      "uri": "textures/lambert12SG_baseColor.png"
    },
    {
      "uri": "textures/lambert12SG_metallicRoughness.png"
    },
    {
      "uri": "textures/lambert12SG_normal.png"
    },
    {
      "uri": "textures/lambert13SG_baseColor.png"
    },
    {
      "uri": "textures/lambert13SG_metallicRoughness.png"
    },
    {
      "uri": "textures/lambert13SG_normal.png"
    },
    {
      "uri": "textures/lambert14SG_baseColor.png"
    },
    {
      "uri": "textures/lambert14SG_metallicRoughness.png"
    },
    {
      "uri": "textures/lambert15SG_baseColor.png"
    },
    {
      "uri": "textures/lambert15SG_metallicRoughness.png"
    },
    {
      "uri": "textures/lambert8SG_metallicRoughness.png"
    },
    {
      "uri": "textures/lambert8SG_normal.png"
    }
  ],
  "materials": [
    {
      "alphaMode": "BLEND",
      "doubleSided": true,
      "emissiveFactor": [
        0,
        0,
        0
      ],
      "name": "lambert10SG",
      "pbrMetallicRoughness": {
        "baseColorFactor": [
          0.5,
          0.5,
          0.5,
          0
        ],
        "metallicFactor": 0,
        "roughnessFactor": 1
      }
    },
    {
      "doubleSided": true,
      "emissiveFactor": [
        0,
        0,
        0
      ],
      "name": "lambert11SG",
      "normalTexture": {
        "index": 2,
        "scale": 1,
        "texCoord": 0
      },
      "pbrMetallicRoughness": {
        "baseColorFactor": [
          1,
          1,
          1,
          1
        ],
        "baseColorTexture": {
          "index": 0,
          "texCoord": 0
        },
        "metallicFactor": 0,
        "metallicRoughnessTexture": {
          "index": 1,
          "texCoord": 0
        },
        "roughnessFactor": 1
      }
    },
    {
      "doubleSided": true,
      "emissiveFactor": [
        0,
        0,
        0
      ],
      "name": "lambert12SG",
      "normalTexture": {
        "index": 5,
        "scale": 1,
        "texCoord": 0
      },
      "occlusionTexture": {
        "index": 4,
        "strength": 1,
        "texCoord": 0
      },
      "pbrMetallicRoughness": {
        "baseColorFactor": [
          1,
          1,
          1,
          1
        ],
        "baseColorTexture": {
          "index": 3,
          "texCoord": 0
        },
        "metallicFactor": 0,
        "metallicRoughnessTexture": {
          "index": 4,
          "texCoord": 0
        },
        "roughnessFactor": 1
      }
    },
    {
      "doubleSided": true,
      "emissiveFactor": [
        0,
        0,
        0
      ],
      "name": "lambert13SG",
      "normalTexture": {
        "index": 8,
        "scale": 1,
        "texCoord": 0
      },
      "occlusionTexture": {
        "index": 7,
        "strength": 1,
        "texCoord": 0
      },
      "pbrMetallicRoughness": {
        "baseColorFactor": [
          1,
          1,
          1,
          1
        ],
        "baseColorTexture": {
          "index": 6,
          "texCoord": 0
        },
        "metallicFactor": 0,
        "metallicRoughnessTexture": {
          "index": 7,
          "texCoord": 0
        },
        "roughnessFactor": 1
      }
    },
    {
      "doubleSided": true,
      "emissiveFactor": [
        0,
        0,
        0
      ],
      "name": "lambert14SG",
      "occlusionTexture": {
        "index": 10,
        "strength": 1,
        "texCoord": 0
      },
      "pbrMetallicRoughness": {
        "baseColorFactor": [
          1,
          1,
          1,
          1
        ],
        "baseColorTexture": {
          "index": 9,
          "texCoord": 0
        },
        "metallicFactor": 0,
        "metallicRoughnessTexture": {
          "index": 10,
          "texCoord": 0
        },
        "roughnessFactor": 1
      }
    },
    {
      "doubleSided": true,
      "emissiveFactor": [
        0,
        0,
        0
      ],
      "name": "lambert15SG",
      "pbrMetallicRoughness": {
        "baseColorFactor": [
          1,
          1,
          1,
          1
        ],
        "baseColorTexture": {
          "index": 11,
          "texCoord": 0
        },
        "metallicFactor": 0,
        "metallicRoughnessTexture": {
          "index": 12,
          "texCoord": 0
        },
        "roughnessFactor": 1
      }
    },
    {
      "doubleSided": true,
      "emissiveFactor": [
        0,
        0,
        0
      ],
      "name": "lambert8SG",
      "normalTexture": {
        "index": 14,
        "scale": 1,
        "texCoord": 0
      },
      "occlusionTexture": {
        "index": 13,
        "strength": 1,
        "texCoord": 0
      },
      "pbrMetallicRoughness": {
        "baseColorFactor": [
          1,
          1,
          1,
          1
        ],
        "baseColorTexture": {
          "index": 11,
          "texCoord": 0
        },
        "metallicFactor": 0,
        "metallicRoughnessTexture": {
          "index": 13,
          "texCoord": 0
        },
        "roughnessFactor": 1
      }
    },
    {
      "alphaMode": "BLEND",
      "doubleSided": true,
      "emissiveFactor": [
        0,
        0,
        0
      ],
      "name": "lambert9SG",
      "pbrMetallicRoughness": {
        "baseColorFactor": [
          0.5,
          0.5,
          0.5,
          0
        ],
        "metallicFactor": 0,
        "roughnessFactor": 1
      }
    }
  ],
  "meshes": [
    {
      "primitives": [
        {
          "attributes": {
            "NORMAL": 1,
            "POSITION": 0,
            "TEXCOORD_0": 2
          },
          "indices": 3,
          "material": 0,
          "mode": 4
        }
      ]
    },
    {
      "primitives": [
        {
          "attributes": {
            "NORMAL": 5,
            "POSITION": 4,
            "TANGENT": 6,
            "TEXCOORD_0": 7
          },
          "indices": 8,
          "material": 1,
          "mode": 4
        }
      ]
    },
    {
      "primitives": [
        {
          "attributes": {
            "NORMAL": 10,
            "POSITION": 9,
            "TANGENT": 11,
            "TEXCOORD_0": 12
          },
          "indices": 13,
          "material": 2,
          "mode": 4
        }
      ]
    },
    {
      "primitives": [
        {
          "attributes": {
            "NORMAL": 15,
            "POSITION": 14,
            "TANGENT": 16,
            "TEXCOORD_0": 17
          },
          "indices": 18,
          "material": 3,
          "mode": 4
        }
      ]
    },
    {
      "primitives": [
        {
          "attributes": {
            "NORMAL": 20,
            "POSITION": 19,
            "TEXCOORD_0": 21
          },
          "indices": 22,
          "material": 4,
          "mode": 4
        }
      ]
    },
    {
      "primitives": [
        {
          "attributes": {
            "NORMAL": 24,
            "POSITION": 23,
            "TEXCOORD_0": 25
          },
          "indices": 26,
          "material": 5,
          "mode": 4
        }
      ]
    },
    {
      "primitives": [
        {
          "attributes": {
            "NORMAL": 28,
            "POSITION": 27,
            "TANGENT": 29,
            "TEXCOORD_0": 30
          },
          "indices": 31,
          "material": 6,
          "mode": 4
        }
      ]
    },
    {
      "primitives": [
        {
          "attributes": {
            "NORMAL": 33,
            "POSITION": 32,
            "TEXCOORD_0": 34
          },
          "indices": 35,
          "material": 7,
          "mode": 4
        }
      ]
    }
  ],
  "nodes": [
    {
      "children": [
        1
      ],
      "name": "RootNode (gltf orientation matrix)",
      "rotation": [
        -0.70710678118654746,
        -0,
        -0,
        0.70710678118654757
      ]
    },
    {
      "children": [
        2
      ],
      "name": "RootNode (model correction matrix)"
    },
    {
      "children": [
        3,
        4,
        5,
        6,
        7,
        8,
        9,
        10
      ],
      "name": "CaraFinal3.obj.cleaner.materialmerger.gles"
    },
    {
      "mesh": 0,
      "name": ""
    },
    {
      "mesh": 1,
      "name": ""
    },
    {
      "mesh": 2,
      "name": ""
    },
    {
      "mesh": 3,
      "name": ""
    },
    {
      "mesh": 4,
      "name": ""
    },
    {
      "mesh": 5,
      "name": ""
    },
    {
      "mesh": 6,
      "name": ""
    },
    {
      "mesh": 7,
      "name": ""
    }
  ],
  "samplers": [
    {
      "magFilter": 9729,
      "minFilter": 9987,
      "wrapS": 10497,
      "wrapT": 10497
    }
  ],
  "scene": 0,
  "scenes": [
    {
      "name": "OSG_Scene",
      "nodes": [
        0
      ]
    }
  ],
  "textures": [
    {
      "sampler": 0,
      "source": 0
    },
    {
      "sampler": 0,
      "source": 1
    },
    {
      "sampler": 0,
      "source": 2
    },
    {
      "sampler": 0,
      "source": 3
    },
    {
      "sampler": 0,
      "source": 4
    },
    {
      "sampler": 0,
      "source": 5
    },
    {
      "sampler": 0,
      "source": 6
    },
    {
      "sampler": 0,
      "source": 7
    },
    {
      "sampler": 0,
      "source": 8
    },
    {
      "sampler": 0,
      "source": 9
    },
    {
      "sampler": 0,
      "source": 10
    },
    {
      "sampler": 0,
      "source": 11
    },
    {
      "sampler": 0,
      "source": 12
    },
    {
      "sampler": 0,
      "source": 13
    },
    {
      "sampler": 0,
      "source": 14
    }
  ]
}

