{
  "accessors": [
    {
      "bufferView": 2,
      "componentType": 5126,
      "count": 19265,
      "max": [
        41.864490509033203,
        41.870010375976562,
        41.892833709716797
      ],
      "min": [
        -41.864490509033203,
        -41.870010375976562,
        -41.892833709716797
      ],
      "type": "VEC3"
    },
    {
      "bufferView": 2,
      "byteOffset": 231180,
      "componentType": 5126,
      "count": 19265,
      "max": [
        0.99999397993087769,
        1,
        1
      ],
      "min": [
        -0.99999392032623291,
        -1,
        -1
      ],
      "type": "VEC3"
    },
    {
      "bufferView": 1,
      "componentType": 5126,
      "count": 19265,
      "max": [
        0.98766416311264038,
        1
      ],
      "min": [
        -0.19999998807907104,
        0
      ],
      "type": "VEC2"
    },
    {
      "bufferView": 0,
      "componentType": 5125,
      "count": 115200,
      "max": [
        19264
      ],
      "min": [
        0
      ],
      "type": "SCALAR"
    },
    {
      "bufferView": 2,
      "byteOffset": 462360,
      "componentType": 5126,
      "count": 673,
      "max": [
        41.031543731689453,
        41.031539916992188,
        41.031547546386719
      ],
      "min": [
        -41.031543731689453,
        -41.031547546386719,
        -41.031547546386719
      ],
      "type": "VEC3"
    },
    {
      "bufferView": 2,
      "byteOffset": 470436,
      "componentType": 5126,
      "count": 673,
      "max": [
        0.99999982118606567,
        1,
        1
      ],
      "min": [
        -0.99999982118606567,
        -1,
        -1
      ],
      "type": "VEC3"
    },
    {
      "bufferView": 1,
      "byteOffset": 154120,
      "componentType": 5126,
      "count": 673,
      "max": [
        0.98766416311264038,
        1
      ],
      "min": [
        -0.19999998807907104,
        0
      ],
      "type": "VEC2"
    },
    {
      "bufferView": 0,
      "byteOffset": 460800,
      "componentType": 5125,
      "count": 3840,
      "max": [
        672
      ],
      "min": [
        0
      ],
      "type": "SCALAR"
    },
    {
      "bufferView": 2,
      "byteOffset": 478512,
      "componentType": 5126,
      "count": 65532,
      "max": [
        0.79206466674804688,
        -43.614955902099609,
        53.309318542480469
      ],
      "min": [
        -115.35697937011719,
        -158.99836730957031,
        -38.748641967773438
      ],
      "type": "VEC3"
    },
    {
      "bufferView": 2,
      "byteOffset": 1264896,
      "componentType": 5126,
      "count": 65532,
      "max": [
        0.99996602535247803,
        0.99994242191314697,
        0.99996203184127808
      ],
      "min": [
        -0.99998164176940918,
        -0.99999773502349854,
        -0.99994993209838867
      ],
      "type": "VEC3"
    },
    {
      "bufferView": 1,
      "byteOffset": 159504,
      "componentType": 5126,
      "count": 65532,
      "max": [
        0.97536885738372803,
        1
      ],
      "min": [
        -0.19999998807907104,
        0
      ],
      "type": "VEC2"
    },
    {
      "bufferView": 0,
      "byteOffset": 476160,
      "componentType": 5125,
      "count": 375936,
      "max": [
        65531
      ],
      "min": [
        0
      ],
      "type": "SCALAR"
    },
    {
      "bufferView": 2,
      "byteOffset": 2051280,
      "componentType": 5126,
      "count": 47240,
      "max": [
        -5.0209674835205078,
        -48.004352569580078,
        25.134037017822266
      ],
      "min": [
        -117.25782775878906,
        -161.87393188476562,
        -62.501838684082031
      ],
      "type": "VEC3"
    },
    {
      "bufferView": 2,
      "byteOffset": 2618160,
      "componentType": 5126,
      "count": 47240,
      "max": [
        0.99998766183853149,
        0.99998599290847778,
        0.99992471933364868
      ],
      "min": [
        -0.99999916553497314,
        -0.9999396800994873,
        -0.99999642372131348
      ],
      "type": "VEC3"
    },
    {
      "bufferView": 1,
      "byteOffset": 683760,
      "componentType": 5126,
      "count": 47240,
      "max": [
        0.97536885738372803,
        1
      ],
      "min": [
        -0.19999998807907104,
        0
      ],
      "type": "VEC2"
    },
    {
      "bufferView": 0,
      "byteOffset": 1979904,
      "componentType": 5125,
      "count": 270864,
      "max": [
        47239
      ],
      "min": [
        0
      ],
      "type": "SCALAR"
    },
    {
      "bufferView": 2,
      "byteOffset": 3185040,
      "componentType": 5126,
      "count": 673,
      "max": [
        -17.284275054931641,
        -61.425918579101562,
        35.160083770751953
      ],
      "min": [
        -99.347366333007812,
        -143.489013671875,
        -46.903011322021484
      ],
      "type": "VEC3"
    },
    {
      "bufferView": 2,
      "byteOffset": 3193116,
      "componentType": 5126,
      "count": 673,
      "max": [
        0.99999982118606567,
        1,
        1
      ],
      "min": [
        -0.9999997615814209,
        -1,
        -1
      ],
      "type": "VEC3"
    },
    {
      "bufferView": 1,
      "byteOffset": 1061680,
      "componentType": 5126,
      "count": 673,
      "max": [
        0.98766416311264038,
        1
      ],
      "min": [
        -0.19999998807907104,
        0
      ],
      "type": "VEC2"
    },
    {
      "bufferView": 0,
      "byteOffset": 3063360,
      "componentType": 5125,
      "count": 3840,
      "max": [
        672
      ],
      "min": [
        0
      ],
      "type": "SCALAR"
    },
    {
      "bufferView": 2,
      "byteOffset": 3201192,
      "componentType": 5126,
      "count": 29248,
      "max": [
        28.727607727050781,
        75.171844482421875,
        14.912812232971191
      ],
      "min": [
        -71.037361145019531,
        -18.608795166015625,
        -82.625770568847656
      ],
      "type": "VEC3"
    },
    {
      "bufferView": 2,
      "byteOffset": 3552168,
      "componentType": 5126,
      "count": 29248,
      "max": [
        0.99960404634475708,
        0.99998551607131958,
        0.99994087219238281
      ],
      "min": [
        -0.9995308518409729,
        -0.99998557567596436,
        -0.99994087219238281
      ],
      "type": "VEC3"
    },
    {
      "bufferView": 1,
      "byteOffset": 1067064,
      "componentType": 5126,
      "count": 29248,
      "max": [
        0.97536885738372803,
        1
      ],
      "min": [
        -0.099999964237213135,
        0.088104158639907837
      ],
      "type": "VEC2"
    },
    {
      "bufferView": 0,
      "byteOffset": 3078720,
      "componentType": 5125,
      "count": 156288,
      "max": [
        29247
      ],
      "min": [
        0
      ],
      "type": "SCALAR"
    },
    {
      "bufferView": 2,
      "byteOffset": 3903144,
      "componentType": 5126,
      "count": 673,
      "max": [
        19.899618148803711,
        71.585800170898438,
        8.1823959350585938
      ],
      "min": [
        -62.163467407226562,
        -10.477287292480469,
        -73.880699157714844
      ],
      "type": "VEC3"
    },
    {
      "bufferView": 2,
      "byteOffset": 3911220,
      "componentType": 5126,
      "count": 673,
      "max": [
        0.9999997615814209,
        1,
        1
      ],
      "min": [
        -0.99999982118606567,
        -1,
        -1
      ],
      "type": "VEC3"
    },
    {
      "bufferView": 1,
      "byteOffset": 1301048,
      "componentType": 5126,
      "count": 673,
      "max": [
        0.98766416311264038,
        1
      ],
      "min": [
        -0.19999998807907104,
        0
      ],
      "type": "VEC2"
    },
    {
      "bufferView": 0,
      "byteOffset": 3703872,
      "componentType": 5125,
      "count": 3840,
      "max": [
        672
      ],
      "min": [
        0
      ],
      "type": "SCALAR"
    },
    {
      "bufferView": 2,
      "byteOffset": 3919296,
      "componentType": 5126,
      "count": 673,
      "max": [
        41.031543731689453,
        41.031539916992188,
        41.031547546386719
      ],
      "min": [
        -41.031543731689453,
        -41.031547546386719,
        -41.031547546386719
      ],
      "type": "VEC3"
    },
    {
      "bufferView": 2,
      "byteOffset": 3927372,
      "componentType": 5126,
      "count": 673,
      "max": [
        0.99999982118606567,
        1,
        1
      ],
      "min": [
        -0.99999982118606567,
        -1,
        -1
      ],
      "type": "VEC3"
    },
    {
      "bufferView": 1,
      "byteOffset": 1306432,
      "componentType": 5126,
      "count": 673,
      "max": [
        0.98766416311264038,
        1
      ],
      "min": [
        -0.19999998807907104,
        0
      ],
      "type": "VEC2"
    },
    {
      "bufferView": 0,
      "byteOffset": 3719232,
      "componentType": 5125,
      "count": 3840,
      "max": [
        672
      ],
      "min": [
        0
      ],
      "type": "SCALAR"
    },
    {
      "bufferView": 2,
      "byteOffset": 3935448,
      "componentType": 5126,
      "count": 65532,
      "max": [
        -45.973949432373047,
        -62.558338165283203,
        3.1961512565612793
      ],
      "min": [
        -140.71903991699219,
        -151.74748229980469,
        -89.817787170410156
      ],
      "type": "VEC3"
    },
    {
      "bufferView": 2,
      "byteOffset": 4721832,
      "componentType": 5126,
      "count": 65532,
      "max": [
        0.99996447563171387,
        0.99999719858169556,
        0.99979722499847412
      ],
      "min": [
        -0.99999010562896729,
        -0.99999696016311646,
        -0.99994814395904541
      ],
      "type": "VEC3"
    },
    {
      "bufferView": 1,
      "byteOffset": 1311816,
      "componentType": 5126,
      "count": 65532,
      "max": [
        1,
        1
      ],
      "min": [
        0,
        0
      ],
      "type": "VEC2"
    },
    {
      "bufferView": 0,
      "byteOffset": 3734592,
      "componentType": 5125,
      "count": 369870,
      "max": [
        65531
      ],
      "min": [
        0
      ],
      "type": "SCALAR"
    },
    {
      "bufferView": 2,
      "byteOffset": 5508216,
      "componentType": 5126,
      "count": 8616,
      "max": [
        -52.290096282958984,
        -63.77093505859375,
        -1.5352210998535156
      ],
      "min": [
        -134.35317993164062,
        -145.83401489257812,
        -87.843299865722656
      ],
      "type": "VEC3"
    },
    {
      "bufferView": 2,
      "byteOffset": 5611608,
      "componentType": 5126,
      "count": 8616,
      "max": [
        0.99999982118606567,
        1,
        1
      ],
      "min": [
        -0.99999982118606567,
        -1,
        -1
      ],
      "type": "VEC3"
    },
    {
      "bufferView": 1,
      "byteOffset": 1836072,
      "componentType": 5126,
      "count": 8616,
      "max": [
        1,
        1
      ],
      "min": [
        -0.19999998807907104,
        0
      ],
      "type": "VEC2"
    },
    {
      "bufferView": 0,
      "byteOffset": 5214072,
      "componentType": 5125,
      "count": 48690,
      "max": [
        8615
      ],
      "min": [
        0
      ],
      "type": "SCALAR"
    }
  ],
  "asset": {
    "extras": {
      "author": "Musa Batuhan Yolcu (https://sketchfab.com/musabatuhanyolcu)",
      "license": "CC-BY-4.0 (http://creativecommons.org/licenses/by/4.0/)",
      "source": "https://sketchfab.com/3d-models/novel-coronavirus-2019-ncov-0520fc4a709542d4999c533fef513636",
      "title": "Novel Coronavirus | 2019-nCoV"
    },
    "generator": "Sketchfab-8.11.0",
    "version": "2.0"
  },
  "bufferViews": [
    {
      "buffer": 0,
      "byteLength": 5408832,
      "byteOffset": 0,
      "name": "floatBufferViews",
      "target": 34963
    },
    {
      "buffer": 0,
      "byteLength": 1905000,
      "byteOffset": 5408832,
      "byteStride": 8,
      "name": "floatBufferViews",
      "target": 34962
    },
    {
      "buffer": 0,
      "byteLength": 5715000,
      "byteOffset": 7313832,
      "byteStride": 12,
      "name": "floatBufferViews",
      "target": 34962
    }
  ],
  "buffers": [
    {
      "byteLength": 13028832,
      "uri": "scene.bin"
    }
  ],
  "extensionsRequired": [
    "KHR_materials_pbrSpecularGlossiness"
  ],
  "extensionsUsed": [
    "KHR_materials_pbrSpecularGlossiness"
  ],
  "materials": [
    {
      "alphaMode": "BLEND",
      "doubleSided": true,
      "extensions": {
        "KHR_materials_pbrSpecularGlossiness": {
          "diffuseFactor": [
            0.47139158753933219,
            0.47139158753933219,
            0.47139158753933219,
            0.34106061530835702
          ],
          "glossinessFactor": 0.40000000000000002,
          "specularFactor": [
            0.086515160762902457,
            0.085646867624230086,
            0.085646867624230086
          ]
        }
      },
      "name": "GeoSphere001__0"
    },
    {
      "doubleSided": true,
      "extensions": {
        "KHR_materials_pbrSpecularGlossiness": {
          "diffuseFactor": [
            0.22696587351009836,
            0,
            0.16826940018969078,
            1
          ],
          "glossinessFactor": 0.40000000000000002,
          "specularFactor": [
            0.02380449526519245,
            0.00024282158683906774,
            0.31032888732696945
          ]
        }
      },
      "name": "02_-_Default"
    },
    {
      "doubleSided": true,
      "extensions": {
        "KHR_materials_pbrSpecularGlossiness": {
          "diffuseFactor": [
            0.30629214545257905,
            0,
            0,
            1
          ],
          "glossinessFactor": 0.40000000000000002,
          "specularFactor": [
            0.35924243349017521,
            0,
            0.0083081709817408762
          ]
        }
      },
      "name": "01_-_Default"
    },
    {
      "doubleSided": true,
      "extensions": {
        "KHR_materials_pbrSpecularGlossiness": {
          "diffuseFactor": [
            0.54838986647760601,
            0.20705293206620748,
            0,
            1
          ],
          "glossinessFactor": 0.40000000000000002,
          "specularFactor": [
            0.0035545490827317556,
            0.094379233082185238,
            7.1219687226243479e-05
          ]
        }
      },
      "name": "03_-_Default"
    },
    {
      "doubleSided": true,
      "extensions": {
        "KHR_materials_pbrSpecularGlossiness": {
          "diffuseFactor": [
            0.22738157235580614,
            0,
            0.16880827311483781,
            1
          ],
          "glossinessFactor": 0.40000000000000002,
          "specularFactor": [
            0.023612577813140391,
            0.00024464243814965067,
            0.30939024333919679
          ]
        }
      },
      "name": "07_-_Default"
    }
  ],
  "meshes": [
    {
      "name": "GeoSphere001__0",
      "primitives": [
        {
          "attributes": {
            "NORMAL": 1,
            "POSITION": 0,
            "TEXCOORD_0": 2
          },
          "indices": 3,
          "material": 0,
          "mode": 4
        }
      ]
    },
    {
      "name": "GeoSphere025_02 - Default_0",
      "primitives": [
        {
          "attributes": {
            "NORMAL": 5,
            "POSITION": 4,
            "TEXCOORD_0": 6
          },
          "indices": 7,
          "material": 1,
          "mode": 4
        }
      ]
    },
    {
      "name": "Box002_01 - Default_0",
      "primitives": [
        {
          "attributes": {
            "NORMAL": 9,
            "POSITION": 8,
            "TEXCOORD_0": 10
          },
          "indices": 11,
          "material": 2,
          "mode": 4
        }
      ]
    },
    {
      "name": "Box002_01 - Default_0",
      "primitives": [
        {
          "attributes": {
            "NORMAL": 13,
            "POSITION": 12,
            "TEXCOORD_0": 14
          },
          "indices": 15,
          "material": 2,
          "mode": 4
        }
      ]
    },
    {
      "name": "Box002_02 - Default_0",
      "primitives": [
        {
          "attributes": {
            "NORMAL": 17,
            "POSITION": 16,
            "TEXCOORD_0": 18
          },
          "indices": 19,
          "material": 1,
          "mode": 4
        }
      ]
    },
    {
      "name": "Box003_03 - Default_0",
      "primitives": [
        {
          "attributes": {
            "NORMAL": 21,
            "POSITION": 20,
            "TEXCOORD_0": 22
          },
          "indices": 23,
          "material": 3,
          "mode": 4
        }
      ]
    },
    {
      "name": "Box003_02 - Default_0",
      "primitives": [
        {
          "attributes": {
            "NORMAL": 25,
            "POSITION": 24,
            "TEXCOORD_0": 26
          },
          "indices": 27,
          "material": 1,
          "mode": 4
        }
      ]
    },
    {
      "name": "GeoSphere026_02 - Default_0",
      "primitives": [
        {
          "attributes": {
            "NORMAL": 29,
            "POSITION": 28,
            "TEXCOORD_0": 30
          },
          "indices": 31,
          "material": 1,
          "mode": 4
        }
      ]
    },
    {
      "name": "Box004_07 - Default_0",
      "primitives": [
        {
          "attributes": {
            "NORMAL": 33,
            "POSITION": 32,
            "TEXCOORD_0": 34
          },
          "indices": 35,
          "material": 4,
          "mode": 4
        }
      ]
    },
    {
      "name": "Box004_07 - Default_0",
      "primitives": [
        {
          "attributes": {
            "NORMAL": 37,
            "POSITION": 36,
            "TEXCOORD_0": 38
          },
          "indices": 39,
          "material": 4,
          "mode": 4
        }
      ]
    }
  ],
  "nodes": [
    {
      "children": [
        1
      ],
      "name": "RootNode (gltf orientation matrix)",
      "rotation": [
        -0.70710678118654746,
        -0,
        -0,
        0.70710678118654757
      ]
    },
    {
      "children": [
        2
      ],
      "name": "RootNode (model correction matrix)"
    },
    {
      "children": [
        3
      ],
      "matrix": [
        1,
        0,
        0,
        0,
        0,
        0,
        1,
        0,
        0,
        -1,
        0,
        0,
        0,
        0,
        0,
        1
      ],
      "name": "3d5bf1fb53d340d883ceeb6e34a452c7.fbx"
    },
    {
      "children": [
        4,
        6,
        8,
        13,
        17,
        19
      ],
      "name": "RootNode"
    },
    {
      "children": [
        5
      ],
      "matrix": [
        1.1064250469207764,
        0,
        0,
        0,
        0,
        2.4567571242268302e-16,
        -1.1064250469207764,
        0,
        0,
        1.1064250469207764,
        2.4567571242268302e-16,
        0,
        0,
        0,
        0,
        1
      ],
      "name": "GeoSphere001"
    },
    {
      "mesh": 0,
      "name": "GeoSphere001__0"
    },
    {
      "children": [
        7
      ],
      "matrix": [
        1,
        0,
        0,
        0,
        0,
        2.2204460492503131e-16,
        -1,
        0,
        0,
        1,
        2.2204460492503131e-16,
        0,
        0,
        0,
        0,
        1
      ],
      "name": "GeoSphere025"
    },
    {
      "mesh": 1,
      "name": "GeoSphere025_02 - Default_0"
    },
    {
      "children": [
        9
      ],
      "matrix": [
        0.16368701535363328,
        0.4605630490280716,
        -0.87240371323979682,
        0,
        0.0053071321195100607,
        -0.88472960241467735,
        -0.46607441998014987,
        0,
        -0.98649804629978144,
        0.071660368971511818,
        -0.14726301696482169,
        0,
        0,
        0,
        0,
        1
      ],
      "name": "Box002"
    },
    {
      "children": [
        10,
        11,
        12
      ],
      "matrix": [
        1,
        0,
        -0,
        0,
        0,
        1,
        0,
        0,
        0,
        0,
        1,
        0,
        58.164844512939453,
        102.33135223388672,
        5.8733997344970703,
        1
      ],
      "name": ""
    },
    {
      "mesh": 2,
      "name": "Box002_01 - Default_0"
    },
    {
      "mesh": 3,
      "name": "Box002_01 - Default_0"
    },
    {
      "mesh": 4,
      "name": "Box002_02 - Default_0"
    },
    {
      "children": [
        14
      ],
      "matrix": [
        0.93216838542241043,
        0.36202500082035277,
        0,
        0,
        -0.19138466311451291,
        0.49279119399435067,
        -0.84883964907759035,
        0,
        -0.30730117465366258,
        0.79126148516318284,
        0.52865040447713019,
        0,
        0,
        0.59642791748046875,
        0.2479248046875,
        1
      ],
      "name": "Box003"
    },
    {
      "children": [
        15,
        16
      ],
      "matrix": [
        1,
        0,
        -0,
        0,
        0,
        1,
        0,
        0,
        0,
        0,
        1,
        0,
        20.798988342285156,
        -30.447521209716797,
        32.213283538818359,
        1
      ],
      "name": ""
    },
    {
      "mesh": 5,
      "name": "Box003_03 - Default_0"
    },
    {
      "mesh": 6,
      "name": "Box003_02 - Default_0"
    },
    {
      "children": [
        18
      ],
      "matrix": [
        1,
        0,
        0,
        0,
        0,
        2.2204460492503131e-16,
        -1,
        0,
        0,
        1,
        2.2204460492503131e-16,
        0,
        0,
        0,
        0,
        1
      ],
      "name": "GeoSphere026"
    },
    {
      "mesh": 7,
      "name": "GeoSphere026_02 - Default_0"
    },
    {
      "children": [
        20
      ],
      "matrix": [
        0.44498308925755903,
        -0.82631306786880676,
        -0.34524884379826659,
        0,
        0.42454204128554507,
        0.53409095139949847,
        -0.73110253098609979,
        0,
        0.78851385875956659,
        0.17875561390462458,
        0.58846607807220208,
        0,
        0.39297771453857422,
        0.13350296020507812,
        0,
        1
      ],
      "name": "Box004"
    },
    {
      "children": [
        21,
        22
      ],
      "matrix": [
        1,
        0,
        -0,
        0,
        0,
        1,
        0,
        0,
        0,
        0,
        1,
        0,
        93.043685913085938,
        104.91521453857422,
        41.982337951660156,
        1
      ],
      "name": ""
    },
    {
      "mesh": 8,
      "name": "Box004_07 - Default_0"
    },
    {
      "mesh": 9,
      "name": "Box004_07 - Default_0"
    }
  ],
  "scene": 0,
  "scenes": [
    {
      "name": "OSG_Scene",
      "nodes": [
        0
      ]
    }
  ]
}

